# AST/ASF file generated using VICON BodyLanguage
# -----------------------------------------------
:version 1.10
:name VICON
:units
  mass 1.0
  length 0.45
  angle deg
:documentation
   .ast/.asf automatically generated from VICON data using
   VICON BodyBuilder and BodyLanguage model FoxedUp or BRILLIANT.MOD
:root
   order TX TY TZ RX RY RZ
   axis XYZ
   position 0 0 0  
   orientation 0 0 0 
:bonedata
  begin
     id 1 
     name lhipjoint
     direction 0.635376 -0.686425 0.353719 
     length 2.47244 
     axis 0 0 0  XYZ
  end
  begin
     id 2 
     name lfemur
     direction 0.34202 -0.939693 0  
     length 7.25268  
     axis 0 0 20  XYZ
    dof rx ry rz
    limits (-160.0 20.0)
           (-70.0 70.0)
           (-60.0 70.0)
  end
  begin
     id 3 
     name ltibia
     direction 0.34202 -0.939693 0   
     length 7.6767   
     axis 0 0 20   XYZ
    dof rx
    limits (-10.0 170.0)
  end
  begin
     id 4 
     name lfoot
     direction 0.0803374 -0.220725 0.972022   
     length 2.22945   
     axis -90 7.62852e-016 20   XYZ
    dof rx rz
    limits (-45.0 90.0)
           (-70.0 20.0)
  end
  begin
     id 5 
     name ltoes
     direction 1.53579e-011 -4.21994e-011 1   
     length 1.11848   
     axis -90 7.62852e-016 20   XYZ
    dof rx
    limits (-90.0 20.0)
  end
  begin
     id 6 
     name rhipjoint
     direction -0.664428 -0.664335 0.342336   
     length 2.55466  
     axis 0 0 0  XYZ 
  end
  begin
     id 7 
     name rfemur
     direction -0.34202 -0.939693 0   
     length 6.83172   
     axis 0 0 -20   XYZ
    dof rx ry rz
    limits (-160.0 20.0)
           (-70.0 70.0)
           (-70.0 60.0)
  end
  begin
     id 8 
     name rtibia
     direction -0.34202 -0.939693 0   
     length 7.62692   
     axis 0 0 -20   XYZ
    dof rx
    limits (-10.0 170.0)
 end
 begin
     id 9 
     name rfoot
     direction -0.0949276 -0.260811 0.960711   
     length 2.19684  
     axis -90 -7.62852e-016 -20   XYZ
    dof rx rz
    limits (-45.0 90.0)
           (-20.0 70.0)
  end
  begin
     id 10 
     name rtoes
     direction -1.53543e-011 -4.2183e-011 1   
     length 1.09848   
     axis -90 -7.62852e-016 -20   XYZ
    dof rx
    limits (-90.0 20.0)
  end
  begin
     id 11 
     name lowerback
     direction 0.0118782 0.999815 -0.0151555   
     length 2.15772   
     axis 0 0 0   XYZ
    dof rx ry rz
    limits (-20.0 45.0)
           (-30.0 30.0)
           (-30.0 30.0)
  end
  begin
     id 12 
     name upperback
     direction 0.00130825 0.999065 0.0432113   
     length 2.14863   
     axis 0 0 0   XYZ
    dof rx ry rz
    limits (-20.0 45.0)
           (-30.0 30.0)
           (-30.0 30.0)
  end
  begin
     id 13 
     name thorax
     direction -0.00347005 0.998773 0.0494011   
     length 2.14936   
     axis 0 0 0   XYZ
    dof rx ry rz
    limits (-20.0 45.0)
           (-30.0 30.0)
           (-30.0 30.0)
  end
  begin
     id 14 
     name lowerneck
     direction -0.0262159 0.99424 0.103921   
     length 1.69373   
     axis 0 0 0   XYZ
    dof rx ry rz
    limits (-20.0 45.0)
           (-30.0 30.0)
           (-30.0 30.0)
  end
  begin
     id 15 
     name upperneck
     direction 0.0353511 0.977394 -0.20845   
     length 1.70857   
     axis 0 0 0   XYZ
    dof rx ry rz
    limits (-20.0 45.0)
           (-30.0 30.0)
           (-30.0 30.0)
  end
  begin
     id 16
     name head
     direction 0.0139214 0.996594 -0.0812836  
     length 1.72777  
     axis 0 0 0   XYZ
    dof rx ry rz
    limits (-20.0 45.0)
           (-30.0 30.0)
           (-30.0 30.0)
  end
  begin
     id 17 
     name lclavicle
     direction 0.841247 0.537205 -0.0609508  
     length 3.55371  
     axis 0 0 0   XYZ
    dof ry rz
    limits (-20.0 10.0)
           (0.0 20.0)
  end
  begin
     id 18 
     name lhumerus
     direction 1 -4.48964e-011 1.60116e-018   
     length 4.91377   
     axis -180 -30 -90   XYZ
    dof rx ry rz
    limits (-60.0 90.0)
           (-90.0 90.0)
           (-90.0 90.0)
  end
  begin
     id 19
     name lradius
     direction 1 -4.48989e-011 -8.93847e-027   
     length 3.00291   
     axis -180 -30 -90   XYZ
    dof rx
    limits (-10.0 170.0)
  end
  begin
     id 20
     name lwrist
     direction 1 -4.48932e-011 -7.31504e-027   
     length 1.50145   
     axis 5.74121e-015 90 90   XYZ
    dof ry
    limits (-180.0 0.0)
 end
  begin
     id 21 
     name lhand
     direction 1 -4.48971e-011 -1.46301e-026   
     length 0.450922   
     axis 9.33524e-015 90 90   XYZ
    dof rx rz
    limits (-90.0 90.0)
           (-45.0 45.0)
  end
  begin
     id 22 
     name lfingers
     direction 1 -4.49039e-011 -2.92602e-026   
     length 0.363545   
     axis 1.86705e-014 90 90   XYZ
    dof rx
    limits (0.0 90.0)
  end
  begin
     id 23
     name lthumb
     direction 0.707107 -6.34941e-011 0.707107   
     length 0.52198   
     axis -90 45 2.85299e-015   XYZ
    dof rx rz
    limits (-45.0 45.0)
           (-45.0 45.0)
  end
  begin
     id 24 
     name rclavicle
     direction -0.825079 0.56158 -0.0622297   
     length 3.39909  
     axis 0 0 0   XYZ 
    dof ry rz
    limits (-10.0 20.0)
           (-20.0 0.0)
  end
  begin
     id 25 
     name rhumerus
     direction -1 -4.48965e-011 1.61691e-027  
     length 4.86725   
     axis -180 30 90   XYZ
    dof rx ry rz
    limits (-90.0 60.0)
           (-90.0 90.0)
           (-90.0 90.0)
  end
  begin
     id 26 
     name rradius
     direction -1 -4.48964e-011 -2.25776e-027   
     length 3.17144   
     axis -180 30 90   XYZ
    dof rx
    limits (-10.0 170.0)
  end
  begin
     id 27 
     name rwrist
     direction -1 -4.48961e-011 -7.31504e-027   
     length 1.58572   
     axis 5.74121e-015 -90 -90   XYZ
    dof ry
    limits (-180.0 0.0)
  end
  begin
     id 28
     name rhand
     direction -1 -4.49013e-011 -1.46301e-026   
     length 0.419368   
     axis 9.33524e-015 -90 -90   XYZ
    dof rx rz
    limits (-90.0 90.0)
           (-45.0 45.0)
  end
  begin
     id 29
     name rfingers
     direction -1 -4.489e-011 -2.92602e-026   
     length 0.338105   
     axis 1.86705e-014 -90 -90   XYZ
    dof rx
    limits (0.0 90.0)
  end
  begin
     id 30
     name rthumb
     direction -0.707107 -6.35022e-011 0.707107   
     length 0.485453   
     axis -90 -45 -2.85299e-015   XYZ
    dof rx rz
    limits (-45.0 45.0)
           (-45.0 45.0)
  end
:hierarchy
  begin
    root lhipjoint rhipjoint lowerback
    lhipjoint lfemur
    lfemur ltibia
    ltibia lfoot
    lfoot ltoes
    rhipjoint rfemur
    rfemur rtibia
    rtibia rfoot
    rfoot rtoes
    lowerback upperback
    upperback thorax
    thorax lowerneck lclavicle rclavicle
    lowerneck upperneck
    upperneck head
    lclavicle lhumerus
    lhumerus lradius
    lradius lwrist
    lwrist lhand lthumb
    lhand lfingers
    rclavicle rhumerus
    rhumerus rradius
    rradius rwrist
    rwrist rhand rthumb
    rhand rfingers
  end

#!OML:ASF H:\Swim 2\Project 1\Capture day 1\Session 1\male.ASF
:FULLY-SPECIFIED
:DEGREES
933
root 7.47815 9.76422 11.1278 90.0615 0.253399 3.95763
lowerback -1.25062 3.56853 -2.65519
upperback -0.418236 4.80383 0.701382
thorax -0.00748258 2.41313 2.24766
lowerneck -21.454 -13.8465 -7.8323
upperneck 41.4459 -20.0061 5.83053
head 22.7733 -7.52514 -0.632887
rclavicle -4.92986e-014 1.19271e-015
rhumerus 63.9147 -27.4089 -11.1552
rradius 74.7914
rwrist -49.8493
rhand -40.3917 -9.27898
rfingers 7.12502
rthumb -13.3454 -38.8316
lclavicle -4.92986e-014 1.19271e-015
lhumerus 87.6657 11.4367 42.8837
lradius 77.3645
lwrist 42.7644
lhand -46.7978 3.35327
lfingers 7.12502
lthumb -19.5129 32.3941
rfemur -51.5509 -19.879 -23.1268
rtibia 122.943
rfoot 6.36705 23.0418
rtoes 17.8798
lfemur -52.0876 6.92036 19.8388
ltibia 128.693
lfoot -13.3425 -8.26784
ltoes 12.1658
934
root 7.4757 9.77264 11.1658 90.4978 0.168326 3.99385
lowerback -1.57718 3.53862 -2.70438
upperback -0.462611 4.77508 0.627527
thorax 0.133547 2.39793 2.22057
lowerneck -22.001 -13.7967 -7.4752
upperneck 41.9596 -19.8762 5.26295
head 23.1537 -7.43147 -0.990581
rclavicle 5.56597e-014 -3.47873e-015
rhumerus 64.7798 -28.0715 -11.0487
rradius 72.6619
rwrist -49.1438
rhand -39.9535 -9.15898
rfingers 7.12502
rthumb -12.9229 -38.7388
lclavicle 5.56597e-014 -3.47873e-015
lhumerus 88.6488 12.0968 43.185
lradius 75.1262
lwrist 41.9016
lhand -46.1711 3.35075
lfingers 7.12502
lthumb -18.9102 32.4515
rfemur -50.3236 -18.9596 -23.2435
rtibia 120.675
rfoot 7.22003 20.8427
rtoes 19.0182
lfemur -50.9557 6.45385 19.835
ltibia 126.435
lfoot -12.5953 -5.75874
ltoes 14.835
935
root 7.47308 9.78155 11.2017 90.9003 0.0859643 4.03652
lowerback -1.86948 3.50941 -2.75119
upperback -0.504502 4.74662 0.558461
thorax 0.257693 2.38298 2.19453
lowerneck -22.4093 -13.744 -7.26577
upperneck 42.3344 -19.7932 4.966
head 23.4945 -7.35716 -1.1938
rclavicle 5.88403e-014 -7.55382e-015
rhumerus 65.6735 -28.6693 -10.9583
rradius 70.4454
rwrist -48.3009
rhand -39.4551 -9.03871
rfingers 7.12502
rthumb -12.4424 -38.6484
lclavicle 5.88403e-014 -7.55382e-015
lhumerus 89.6339 12.7063 43.4745
lradius 72.7814
lwrist 40.8464
lhand -45.5633 3.33892
lfingers 7.12502
lthumb -18.3257 32.4957
rfemur -49.0319 -18.1176 -23.2836
rtibia 118.261
rfoot 8.1433 18.562
rtoes 20.0452
lfemur -49.7643 6.12274 19.721
ltibia 123.983
lfoot -11.8539 -3.02199
ltoes 17.4212
936
root 7.47045 9.79076 11.2356 91.2808 0.0040376 4.08338
lowerback -2.14289 3.48136 -2.79739
upperback -0.546609 4.71951 0.493388
thorax 0.370653 2.3688 2.17071
lowerneck -22.7132 -13.6949 -7.13554
upperneck 42.6153 -19.7464 4.82518
head 23.7907 -7.29896 -1.30715
rclavicle 7.79236e-014 -1.31446e-014
rhumerus 66.6113 -29.2156 -10.908
rradius 68.1612
rwrist -47.4294
rhand -38.8349 -8.90985
rfingers 7.12502
rthumb -11.8445 -38.5549
lclavicle 7.79236e-014 -1.31446e-014
lhumerus 90.6117 13.2738 43.743
lradius 70.3581
lwrist 39.6775
lhand -44.9778 3.25268
lfingers 7.12502
lthumb -17.7623 32.4614
rfemur -47.6931 -17.3582 -23.262
rtibia 115.704
rfoot 9.10559 16.1974
rtoes 21.014
lfemur -48.5327 5.93048 19.513
ltibia 121.337
lfoot -11.1358 -0.0934968
ltoes 19.941
937
root 7.46781 9.80009 11.268 91.6344 -0.0653619 4.132
lowerback -2.39412 3.45743 -2.83215
upperback -0.588052 4.69725 0.437089
thorax 0.471761 2.35716 2.1479
lowerneck -22.968 -13.6511 -7.01037
upperneck 42.8634 -19.7129 4.70666
head 24.0538 -7.24783 -1.40805
rclavicle 7.15625e-014 1.49089e-016
rhumerus 67.602 -29.7222 -10.9131
rradius 65.8291
rwrist -46.6273
rhand -38.0493 -8.76531
rfingers 7.12502
rthumb -11.0868 -38.4525
lclavicle 7.15625e-014 1.49089e-016
lhumerus 91.5757 13.7984 43.9901
lradius 67.8836
lwrist 38.472
lhand -44.403 3.02796
lfingers 7.12502
lthumb -17.2091 32.2859
rfemur -46.3071 -16.6553 -23.1603
rtibia 112.994
rfoot 10.0705 13.7295
rtoes 21.8896
lfemur -47.258 5.84946 19.2396
ltibia 118.49
lfoot -10.4784 2.99295
ltoes 22.3556
938
root 7.46522 9.8092 11.2991 91.9773 -0.124306 4.17609
lowerback -2.64434 3.44009 -2.86147
upperback -0.63226 4.68388 0.388751
thorax 0.568688 2.35008 2.13006
lowerneck -23.1549 -13.6171 -6.89736
upperneck 43.0608 -19.705 4.63308
head 24.2673 -7.20892 -1.48456
rclavicle -3.33958e-014 1.26104e-014
rhumerus 68.6313 -30.1992 -10.9604
rradius 63.4744
rwrist -45.9609
rhand -37.0981 -8.58515
rfingers 7.12502
rthumb -10.1692 -38.3194
lclavicle -3.33958e-014 1.26104e-014
lhumerus 92.5249 14.2787 44.2251
lradius 65.3707
lwrist 37.2607
lhand -43.8032 2.65811
lfingers 7.12502
lthumb -16.6317 31.9655
rfemur -44.9001 -16.0125 -22.9882
rtibia 110.128
rfoot 11.0166 11.1807
rtoes 22.7151
lfemur -45.9554 5.86732 18.9169
ltibia 115.434
lfoot -9.92427 6.17253
ltoes 24.6735
939
root 7.46293 9.81777 11.3284 92.3406 -0.171723 4.22609
lowerback -2.931 3.42552 -2.87999
upperback -0.685294 4.67541 0.344569
thorax 0.677113 2.34548 2.11269
lowerneck -23.2811 -13.5911 -6.80286
upperneck 43.2063 -19.7221 4.61501
head 24.4347 -7.18156 -1.52994
rclavicle -9.54166e-015 -1.05853e-014
rhumerus 69.6846 -30.6582 -11.0333
rradius 61.0994
rwrist -45.3726
rhand -36.0288 -8.36891
rfingers 7.12502
rthumb -9.13757 -38.151
lclavicle -9.54166e-015 -1.05853e-014
lhumerus 93.4639 14.7081 44.4497
lradius 62.8149
lwrist 36.0418
lhand -43.1728 2.17241
lfingers 7.12502
lthumb -16.0247 31.5297
rfemur -43.5001 -15.4478 -22.752
rtibia 107.104
rfoot 11.9339 8.59221
rtoes 23.4986
lfemur -44.6705 5.97119 18.5688
ltibia 112.17
lfoot -9.52279 9.35778
ltoes 26.8581
